<?xml version="1.0" encoding="UTF-8" standalone="no"?>
<svg
   xmlns:dc="http://purl.org/dc/elements/1.1/"
   xmlns:cc="http://creativecommons.org/ns#"
   xmlns:rdf="http://www.w3.org/1999/02/22-rdf-syntax-ns#"
   xmlns:svg="http://www.w3.org/2000/svg"
   xmlns="http://www.w3.org/2000/svg"
   xmlns:sodipodi="http://sodipodi.sourceforge.net/DTD/sodipodi-0.dtd"
   xmlns:inkscape="http://www.inkscape.org/namespaces/inkscape"
   width="16"
   height="16"
   viewBox="0 0 4.2333332 4.2333335"
   version="1.1"
   id="svg8"
   inkscape:version="1.0.2-2 (e86c870879, 2021-01-15)"
   sodipodi:docname="add_prop.svg">
  <defs
     id="defs2">
    <inkscape:path-effect
       hide_knots="false"
       only_selected="false"
       apply_with_radius="true"
       apply_no_radius="true"
       use_knot_distance="true"
       flexible="false"
       chamfer_steps="1"
       radius="0.25"
       mode="F"
       method="auto"
       unit="px"
       satellites_param="F,0,0,1,0,0,0,1 @ F,0,0,1,0,0.25,0,1 @ F,0,0,1,0,0.25,0,1 @ F,0,0,1,0,0,0,1"
       lpeversion="1"
       is_visible="true"
       id="path-effect869"
       effect="fillet_chamfer" />
  </defs>
  <sodipodi:namedview
     id="base"
     pagecolor="#00002f"
     bordercolor="#666666"
     borderopacity="1.0"
     inkscape:pageopacity="0"
     inkscape:pageshadow="2"
     inkscape:zoom="31.678384"
     inkscape:cx="5.7654561"
     inkscape:cy="9.5755019"
     inkscape:document-units="px"
     inkscape:current-layer="layer3"
     inkscape:document-rotation="0"
     showgrid="true"
     units="px"
     inkscape:window-width="1440"
     inkscape:window-height="837"
     inkscape:window-x="-8"
     inkscape:window-y="-8"
     inkscape:window-maximized="1">
    <inkscape:grid
       type="xygrid"
       id="grid842" />
  </sodipodi:namedview>
  <metadata
     id="metadata5">
    <rdf:RDF>
      <cc:Work
         rdf:about="">
        <dc:format>image/svg+xml</dc:format>
        <dc:type
           rdf:resource="http://purl.org/dc/dcmitype/StillImage" />
        <dc:title />
      </cc:Work>
    </rdf:RDF>
  </metadata>
  <g
     inkscape:label="Layer 1"
     id="layer3"
     inkscape:groupmode="layer">
    <path
       id="rect834"
       style="fill:#a5b7f3;stroke-width:8.00001;stroke-linecap:round;stop-color:#000000;fill-opacity:1"
       d="M 3 2 C 2.446 2 2 2.446 2 3 L 2 9 C 2 9.5540001 2.446 10 3 10 L 13 10 C 13.554 10 14 9.5540001 14 9 L 14 3 C 14 2.446 13.554 2 13 2 L 10 2 L 10 4 L 6 4 L 6 2 L 3 2 z M 4.5 6 L 11.5 6 C 11.777 6 12 6.223 12 6.5 C 12 6.777 11.777 7 11.5 7 L 4.5 7 C 4.223 7 4 6.777 4 6.5 C 4 6.223 4.223 6 4.5 6 z M 4.5 8 L 11.5 8 C 11.777 8 12 8.223 12 8.5 C 12 8.777 11.777 9 11.5 9 L 4.5 9 C 4.223 9 4 8.777 4 8.5 C 4 8.223 4.223 8 4.5 8 z "
       transform="scale(0.26458333)" />
    <rect
       style="fill:#a5b7f3;stroke-width:2.11667;stroke-linecap:round;stop-color:#000000;fill-opacity:1"
       id="rect836"
       width="0.52916664"
       height="1.0583333"
       x="1.8520833"
       y="2.9104166"
       ry="7.5036617e-08"
       rx="7.5036617e-08" />
    <path
       id="rect849"
       style="fill:#a5b7f3;stroke-width:2.11668;stroke-linecap:round;stop-color:#000000;fill-opacity:1"
       d="m 2.1166667,0.26458332 c 0.1465792,0 0.2645835,0.11800416 0.2645834,0.26458332 l -10e-8,0.26458336 -0.5291667,2e-8 V 0.52916666 c 0,-0.14657916 0.1180042,-0.26458332 0.2645834,-0.26458334 z"
       sodipodi:nodetypes="ssccss" />
  </g>
</svg>
