<?xml version="1.0" encoding="UTF-8" standalone="no"?>
<svg
   xmlns:dc="http://purl.org/dc/elements/1.1/"
   xmlns:cc="http://creativecommons.org/ns#"
   xmlns:rdf="http://www.w3.org/1999/02/22-rdf-syntax-ns#"
   xmlns:svg="http://www.w3.org/2000/svg"
   xmlns="http://www.w3.org/2000/svg"
   xmlns:sodipodi="http://sodipodi.sourceforge.net/DTD/sodipodi-0.dtd"
   xmlns:inkscape="http://www.inkscape.org/namespaces/inkscape"
   width="16"
   height="16"
   viewBox="0 0 4.2333332 4.2333335"
   version="1.1"
   id="svg8"
   inkscape:version="1.0.2-2 (e86c870879, 2021-01-15)"
   sodipodi:docname="add_walk.svg">
  <defs
     id="defs2">
    <inkscape:path-effect
       hide_knots="false"
       only_selected="false"
       apply_with_radius="true"
       apply_no_radius="true"
       use_knot_distance="true"
       flexible="false"
       chamfer_steps="1"
       radius="0.25"
       mode="F"
       method="auto"
       unit="px"
       satellites_param="F,0,0,1,0,0,0,1 @ F,0,0,1,0,0.25,0,1 @ F,0,0,1,0,0.25,0,1 @ F,0,0,1,0,0,0,1"
       lpeversion="1"
       is_visible="true"
       id="path-effect869"
       effect="fillet_chamfer" />
  </defs>
  <sodipodi:namedview
     id="base"
     pagecolor="#00002f"
     bordercolor="#666666"
     borderopacity="1.0"
     inkscape:pageopacity="0"
     inkscape:pageshadow="2"
     inkscape:zoom="31.678384"
     inkscape:cx="7.4508271"
     inkscape:cy="8.7881321"
     inkscape:document-units="px"
     inkscape:current-layer="layer3"
     inkscape:document-rotation="0"
     showgrid="true"
     units="px"
     inkscape:window-width="1440"
     inkscape:window-height="837"
     inkscape:window-x="-8"
     inkscape:window-y="-8"
     inkscape:window-maximized="1">
    <inkscape:grid
       type="xygrid"
       id="grid842" />
  </sodipodi:namedview>
  <metadata
     id="metadata5">
    <rdf:RDF>
      <cc:Work
         rdf:about="">
        <dc:format>image/svg+xml</dc:format>
        <dc:type
           rdf:resource="http://purl.org/dc/dcmitype/StillImage" />
        <dc:title />
      </cc:Work>
    </rdf:RDF>
  </metadata>
  <g
     inkscape:label="Layer 1"
     id="layer3"
     inkscape:groupmode="layer">
    <path
       id="rect834"
       style="fill:#a5b7f3;fill-opacity:1;stroke-width:8.00001;stroke-linecap:round;stop-color:#000000"
       d="M 5 2 C 4.4459999 2 4 2.4459999 4 3 L 4 7.5 A 2.4999999 2.4999999 0 0 1 5 9.5 A 2.4999999 2.4999999 0 0 1 4.0996094 11.421875 C 4.2588582 11.762089 4.5982329 12 5 12 L 11 12 C 11.401767 12 11.741142 11.762089 11.900391 11.421875 A 2.4999999 2.4999999 0 0 1 11 9.5 A 2.4999999 2.4999999 0 0 1 12 7.5 L 12 3 C 12 2.4459999 11.554 2 11 2 L 5 2 z M 6.5 6 C 6.777 6 7 6.223 7 6.5 L 7 8.5 C 7 8.777 6.777 9 6.5 9 C 6.223 9 6 8.777 6 8.5 L 6 6.5 C 6 6.223 6.223 6 6.5 6 z M 9.5 6 C 9.777 6 10 6.223 10 6.5 L 10 8.5 C 10 8.777 9.777 9 9.5 9 C 9.223 9 9 8.777 9 8.5 L 9 6.5 C 9 6.223 9.223 6 9.5 6 z "
       transform="scale(0.26458333)" />
    <circle
       style="fill:#a5b7f3;fill-opacity:1;stroke-width:2.11667;stroke-linecap:round;stop-color:#000000"
       id="path836"
       cx="0.66145831"
       cy="2.5135417"
       r="0.39687499" />
    <circle
       style="fill:#a5b7f3;fill-opacity:1;stroke-width:2.11667;stroke-linecap:round;stop-color:#000000"
       id="circle838"
       cx="3.5718751"
       cy="2.5135417"
       r="0.39687499" />
    <path
       style="fill:#a5b7f3;fill-opacity:1;stroke:none;stroke-width:0.264583px;stroke-linecap:butt;stroke-linejoin:miter;stroke-opacity:1"
       d="m 1.5875,3.4395833 c 0,0.2645834 -0.5291667,0.2645834 -0.5291667,0.5291667 h 0.79375 V 3.4395833 Z"
       id="path844"
       sodipodi:nodetypes="ccccc" />
    <path
       style="fill:#a5b7f3;fill-opacity:1;stroke:none;stroke-width:0.264583px;stroke-linecap:butt;stroke-linejoin:miter;stroke-opacity:1"
       d="M 2.6458333,3.4395833 C 2.6458333,3.7041667 3.175,3.7041667 3.175,3.96875 H 2.38125 V 3.4395833 Z"
       id="path846"
       sodipodi:nodetypes="ccccc" />
  </g>
</svg>
