<svg width="16" height="16" version="1.1" viewBox="0 0 4.2333 4.2333" xmlns="http://www.w3.org/2000/svg">
 <g fill="#a5b7f3">
  <path transform="scale(.26458)" d="m7.9492 5a3 3 0 0 0-2.9492 3 3 3 0 0 0 3 3v-1h2v-2h1a3 3 0 0 0-3-3 3 3 0 0 0-0.050781 0z" stop-color="#000000" stroke-linecap="round" stroke-width="8"/>
  <path d="m3.9688 0.26458h-3.4396v2.3812c0.26458-1.8521 2.1167-2.1167 3.4396-2.3812z"/>
  <path transform="scale(.26458)" d="m14 6c-0.12067 0.72402-0.34715 1.3872-0.65234 2h0.65234v-2zm-6 6.6797c-2.4661 1.1796-5.1563 1.8594-7 2.3203h9v-1h-2v-1.3203z"/>
 </g>
 <path d="m3.4396 3.4396h0.52917v-0.52917h-0.52917v-0.52917h-0.52917v0.52917h-0.52917v0.52917h0.52917v0.52917h0.52917z" fill="#5fff97" stroke-width=".26458"/>
</svg>
