<svg width="16" height="16" version="1.1" viewBox="0 0 4.2333 4.2333" xmlns="http://www.w3.org/2000/svg">
 <g fill="#a5b7f3">
  <circle cx=".66146" cy="2.5135" r=".39687" stop-color="#000000" stroke-linecap="round" stroke-width="2.1167"/>
  <path d="m1.5875 3.4396c0 0.26458-0.52917 0.26458-0.52917 0.52917h0.79375v-0.52917z"/>
  <path transform="scale(.26458)" d="m5 2c-0.554 0-1 0.446-1 1v4.5a2.5 2.5 0 0 1 1 2 2.5 2.5 0 0 1-0.90039 1.9219c0.15925 0.34021 0.49862 0.57812 0.90039 0.57812h3v-2h2v-1.5c0 0.277-0.223 0.5-0.5 0.5-0.277 0-0.5-0.223-0.5-0.5v-2c0-0.277 0.223-0.5 0.5-0.5 0.277 0 0.5 0.223 0.5 0.5v1.5h1.5a2.5 2.5 0 0 1 0.5-0.5v-4.5c0-0.554-0.446-1-1-1h-6zm1.5 4c0.277 0 0.5 0.223 0.5 0.5v2c0 0.277-0.223 0.5-0.5 0.5-0.277 0-0.5-0.223-0.5-0.5v-2c0-0.277 0.223-0.5 0.5-0.5zm7.5 2.0859v1.9141h0.91406a1.5 1.5 0 0 0 0.085938-0.5 1.5 1.5 0 0 0-1-1.4141zm-5 5.9141v1h1v-1h-1z"/>
 </g>
 <path d="m3.4396 3.4396h0.52917v-0.52917h-0.52917v-0.52917h-0.52917v0.52917h-0.52917v0.52917h0.52917v0.52917h0.52917z" fill="#5fff97" stroke-width=".26458"/>
</svg>
