<svg width="16" height="16" version="1.1" viewBox="0 0 4.2333 4.2333" xmlns="http://www.w3.org/2000/svg">
 <g fill="#a5b7f3" stroke-linecap="round">
  <path transform="scale(.26458)" d="m3 2c-0.554 0-1 0.446-1 1v6c0 0.554 0.446 1 1 1h5 2v-1h-5.5c-0.277 0-0.5-0.223-0.5-0.5s0.223-0.5 0.5-0.5h5.5 1.5 2.5v-5c0-0.554-0.446-1-1-1h-3v2h-4v-2h-3zm1.5 4h7c0.277 0 0.5 0.223 0.5 0.5s-0.223 0.5-0.5 0.5h-7c-0.277 0-0.5-0.223-0.5-0.5s0.223-0.5 0.5-0.5z" stop-color="#000000" stroke-width="8"/>
  <path transform="scale(.26458)" d="m7 11v4h2v-1h-1v-3h-1z" stop-color="#000000" stroke-width="8"/>
  <path d="m2.1167 0.26458c0.14658 0 0.26458 0.118 0.26458 0.26458l-1e-7 0.26458-0.52917 2e-8v-0.26458c0-0.14658 0.118-0.26458 0.26458-0.26458z" stop-color="#000000" stroke-width="2.1167"/>
 </g>
 <path d="m3.4396 3.4396h0.52917v-0.52917h-0.52917v-0.52917h-0.52917v0.52917h-0.52917v0.52917h0.52917v0.52917h0.52917z" fill="#5fff97" stroke-width=".26458"/>
</svg>
