<?xml version="1.0" encoding="UTF-8" standalone="no"?>
<svg
   xmlns:dc="http://purl.org/dc/elements/1.1/"
   xmlns:cc="http://creativecommons.org/ns#"
   xmlns:rdf="http://www.w3.org/1999/02/22-rdf-syntax-ns#"
   xmlns:svg="http://www.w3.org/2000/svg"
   xmlns="http://www.w3.org/2000/svg"
   xmlns:sodipodi="http://sodipodi.sourceforge.net/DTD/sodipodi-0.dtd"
   xmlns:inkscape="http://www.inkscape.org/namespaces/inkscape"
   sodipodi:docname="jump.svg"
   inkscape:version="1.0 (4035a4fb49, 2020-05-01)"
   id="svg8"
   version="1.1"
   viewBox="0 0 8.4666665 8.4666669"
   height="32"
   width="32">
  <defs
     id="defs2" />
  <sodipodi:namedview
     inkscape:window-maximized="1"
     inkscape:window-y="-11"
     inkscape:window-x="-11"
     inkscape:window-height="1346"
     inkscape:window-width="2160"
     units="px"
     showgrid="false"
     inkscape:document-rotation="0"
     inkscape:current-layer="layer1"
     inkscape:document-units="px"
     inkscape:cy="15.694138"
     inkscape:cx="17.726013"
     inkscape:zoom="15.839192"
     inkscape:pageshadow="2"
     inkscape:pageopacity="1"
     borderopacity="1.0"
     bordercolor="#666666"
     pagecolor="#000000"
     id="base" />
  <metadata
     id="metadata5">
    <rdf:RDF>
      <cc:Work
         rdf:about="">
        <dc:format>image/svg+xml</dc:format>
        <dc:type
           rdf:resource="http://purl.org/dc/dcmitype/StillImage" />
        <dc:title />
      </cc:Work>
    </rdf:RDF>
  </metadata>
  <g
     id="layer1"
     inkscape:groupmode="layer"
     inkscape:label="Layer 1">
    <path
       transform="scale(0.26458333)"
       d="M 5.1777344 4 L 5.1777344 12.648438 L 15.595703 12.648438 C 17.486286 12.648437 19.007812 11.126911 19.007812 9.2363281 L 19.007812 7.4121094 C 19.007812 5.5215258 17.486286 4 15.595703 4 L 5.1777344 4 z "
       style="fill:#ffffff;fill-opacity:0.878431;fill-rule:evenodd;stroke-width:2.1893"
       id="rect840" />
    <path
       transform="scale(0.26458333)"
       d="M 5.1777344 18 L 5.1777344 26.648438 L 15.595703 26.648438 C 17.486286 26.648437 19.007812 25.126911 19.007812 23.236328 L 19.007812 21.412109 C 19.007812 19.521526 17.486286 18 15.595703 18 L 5.1777344 18 z "
       style="fill:#ffffff;fill-opacity:0.878431;fill-rule:evenodd;stroke-width:2.18929"
       id="rect840-0" />
    <path
       transform="scale(0.26458333)"
       d="M 22.601562 7.9550781 C 22.601562 7.9550781 27.739746 13.213749 24.970703 18.634766 L 22.382812 16.224609 L 21.660156 22.484375 L 28.318359 21.753906 L 26.177734 19.759766 C 29.271322 17.684504 32.021624 13.729985 22.601562 7.9550781 z "
       style="fill:#ffffff;fill-opacity:0.878431;stroke:none;stroke-width:0.999999px;stroke-linecap:butt;stroke-linejoin:miter;stroke-opacity:1"
       id="path857" />
  </g>
</svg>
