<?xml version="1.0" encoding="UTF-8" standalone="no"?>
<svg
   xmlns:dc="http://purl.org/dc/elements/1.1/"
   xmlns:cc="http://creativecommons.org/ns#"
   xmlns:rdf="http://www.w3.org/1999/02/22-rdf-syntax-ns#"
   xmlns:svg="http://www.w3.org/2000/svg"
   xmlns="http://www.w3.org/2000/svg"
   xmlns:sodipodi="http://sodipodi.sourceforge.net/DTD/sodipodi-0.dtd"
   xmlns:inkscape="http://www.inkscape.org/namespaces/inkscape"
   height="32"
   viewBox="0 0 32 32"
   width="32"
   version="1.1"
   id="svg4"
   sodipodi:docname="signal.svg"
   inkscape:version="1.0 (4035a4fb49, 2020-05-01)">
  <metadata
     id="metadata10">
    <rdf:RDF>
      <cc:Work
         rdf:about="">
        <dc:format>image/svg+xml</dc:format>
        <dc:type
           rdf:resource="http://purl.org/dc/dcmitype/StillImage" />
        <dc:title />
      </cc:Work>
    </rdf:RDF>
  </metadata>
  <defs
     id="defs8" />
  <sodipodi:namedview
     inkscape:document-rotation="0"
     pagecolor="#ffffff"
     bordercolor="#666666"
     borderopacity="1"
     objecttolerance="10"
     gridtolerance="10"
     guidetolerance="10"
     inkscape:pageopacity="0"
     inkscape:pageshadow="2"
     inkscape:window-width="2160"
     inkscape:window-height="1346"
     id="namedview6"
     showgrid="false"
     inkscape:zoom="47.0625"
     inkscape:cx="8"
     inkscape:cy="23.298805"
     inkscape:window-x="-11"
     inkscape:window-y="-11"
     inkscape:window-maximized="1"
     inkscape:current-layer="svg4" />
  <path
     d="M 10,7 A 1.5,1.5 0 0 0 8.5,8.5 1.5,1.5 0 0 0 10,10 c 6.64515,0 12,5.35485 12,12 A 1.5,1.5 0 0 0 23.5,23.5 1.5,1.5 0 0 0 25,22 C 25,13.7335 18.2665,7 10,7 Z m 0,6 A 1.5,1.5 0 0 0 8.5,14.5 1.5,1.5 0 0 0 10,16 c 3.3315,0 6,2.6685 6,6 A 1.5,1.5 0 0 0 17.5,23.5 1.5,1.5 0 0 0 19,22 c 0,-4.9527 -4.04715,-9 -9,-9 z m 0,6 a 3,3 0 0 0 -3,3 3,3 0 0 0 3,3 3,3 0 0 0 3,-3 3,3 0 0 0 -3,-3 z"
     id="path2"
     style="fill:#ffffff;fill-opacity:0.878431;stroke-width:2" />
</svg>
