<?xml version="1.0" encoding="UTF-8" standalone="no"?>
<svg
   xmlns:dc="http://purl.org/dc/elements/1.1/"
   xmlns:cc="http://creativecommons.org/ns#"
   xmlns:rdf="http://www.w3.org/1999/02/22-rdf-syntax-ns#"
   xmlns:svg="http://www.w3.org/2000/svg"
   xmlns="http://www.w3.org/2000/svg"
   xmlns:sodipodi="http://sodipodi.sourceforge.net/DTD/sodipodi-0.dtd"
   xmlns:inkscape="http://www.inkscape.org/namespaces/inkscape"
   sodipodi:docname="warp.svg"
   inkscape:version="1.0 (4035a4fb49, 2020-05-01)"
   id="svg8"
   version="1.1"
   viewBox="0 0 8.4666665 8.4666669"
   height="32"
   width="32">
  <defs
     id="defs2" />
  <sodipodi:namedview
     inkscape:window-maximized="1"
     inkscape:window-y="-11"
     inkscape:window-x="-11"
     inkscape:window-height="1346"
     inkscape:window-width="2160"
     units="px"
     showgrid="false"
     inkscape:document-rotation="0"
     inkscape:current-layer="layer1"
     inkscape:document-units="px"
     inkscape:cy="19.227322"
     inkscape:cx="21.782382"
     inkscape:zoom="22.627417"
     inkscape:pageshadow="2"
     inkscape:pageopacity="1"
     borderopacity="1.0"
     bordercolor="#666666"
     pagecolor="#000000"
     id="base" />
  <metadata
     id="metadata5">
    <rdf:RDF>
      <cc:Work
         rdf:about="">
        <dc:format>image/svg+xml</dc:format>
        <dc:type
           rdf:resource="http://purl.org/dc/dcmitype/StillImage" />
        <dc:title />
      </cc:Work>
    </rdf:RDF>
  </metadata>
  <g
     id="layer1"
     inkscape:groupmode="layer"
     inkscape:label="Layer 1">
    <path
       transform="scale(0.26458333)"
       d="M 14.919922 4 C 11.280209 5.2229611 8.2721566 8.0551542 7.7460938 12.158203 C 7.2754114 15.829305 9.7746934 20.694936 14.078125 20.126953 C 15.666143 19.91736 18.482914 17.155849 16 16 C 14.844152 18.482913 12.082639 15.666142 11.873047 14.078125 C 11.305064 9.7746968 16.170697 7.2754122 19.841797 7.7460938 C 23.930334 8.2702962 26.77043 11.254282 28 14.876953 L 28 6.9257812 C 26.604367 5.6464494 24.950777 4.6342215 23.052734 4 L 14.919922 4 z M 16 16 C 17.155848 13.517087 19.917361 16.333858 20.126953 17.921875 C 20.694935 22.225303 15.829303 24.724587 12.158203 24.253906 C 8.069666 23.729704 5.22957 20.745718 4 17.123047 L 4 25.074219 C 5.3956325 26.353551 7.0492231 27.365778 8.9472656 28 L 17.080078 28 C 20.719792 26.777038 23.727844 23.944846 24.253906 19.841797 C 24.724589 16.170695 22.225306 11.305064 17.921875 11.873047 C 16.333857 12.08264 13.517086 14.844151 16 16 z "
       style="fill:#ffffff;fill-opacity:0.878431;fill-rule:evenodd;stroke:none;stroke-width:0.999999;stroke-opacity:1"
       id="path858" />
  </g>
</svg>
